# xmcd CD database file
#
# Track frame offsets:
#	150
#	14925
#	44937
#	67750
#	85912
#	118575
#	134362
#	153112
#	170100
#
# Disc length: 2468 seconds
#
# Revision: 0
# Processed by: cddbd v1.5PL3 Copyright (c) Steve Scherf et al.
# Submitted via: CDex 1.50
#
DISCID=7d09a209
DTITLE=エレファントカシマシ - 浮世の夢
DYEAR=1989
DGENRE=Rock
TTITLE0=「序曲」夢のちまた
TTITLE1=うつら　うつら
TTITLE2=上野の山
TTITLE3=GT
TTITLE4=珍奇男
TTITLE5=浮雲男
TTITLE6=見果てぬ夢
TTITLE7=月と歩いた
TTITLE8=冬の夜
EXTD=YEAR: 1989
EXTT0=
EXTT1=
EXTT2=
EXTT3=
EXTT4=
EXTT5=
EXTT6=
EXTT7=
EXTT8=
PLAYORDER=
